<?xml version='1.0' encoding='utf-8'?>
<svg xmlns="http://www.w3.org/2000/svg" version="1.0" viewBox="0 0 1576 1329"> <g fill="#151921"> <path d="m131.55 240.55c31.49-69.49 90.79-124.56 158-159.93 0.07-0.04 0.12-0.02 0.13 0.06 0.01 0.09 0.01 0.21 0.01 0.37 0 0.07-0.03 0.13-0.1 0.18-9.6 6.08-34.9 26.79-25.59 40.81 2.94 4.43 9.54 5.29 14.57 3.99 65-16.71 146.18-26.69 199.83 24.33 26.12 24.83 38.32 55.51 36.61 92.04-0.04 0.84 0.58 1.56 1.41 1.65 27.32 2.95 49.43 18.49 55.03 46.3 0.91 4.48 1.34 11.12 1.3 19.91-0.24 52.91-5.6 109.69-10.89 164.56-0.03 0.31-0.01 0.58 0.06 0.81 0.13 0.38 0.28 0.61 0.46 0.7 0.45 0.21 0.99 0.08 1.29-0.31 5.99-7.74 17.91-16.94 27.96-15.16 22.39 3.95 2.8 50.84-1.64 61.68-7.17 17.47-13.03 34.76-17.59 51.88-3.21 12.09-9.75 20.64-23.7 18.27-1.23-0.21-1.87 0.3-1.92 1.55-0.31 7.21-0.77 14.54-0.72 21.77 0.12 14.61 0 24.01-0.36 28.21-2.89 33.87-23 67.57-58.15 74.54-0.19 0.04-0.32 0.21-0.3 0.4 0.01 0.19 0.17 0.34 0.36 0.35 9.43 0.39 18.64-3.51 26.17-8.87 0.75-0.53 1.79 0.03 1.75 0.95-0.93 25.41-7.06 53.36-24.54 72.97-0.74 0.83-0.7 1.43-0.63 2.43 1.86 26.45 2.88 53.5 1.74 80-0.91 21.3-2.15 42.55-3.73 63.75-0.01 0.11-0.09 0.19-0.2 0.2-0.1 0-0.2-0.07-0.22-0.17l-7.62-36.22c-0.2-0.95-1.19-1.51-2.11-1.2l-89.99 30.63c-0.51 0.17-0.95-0.4-0.65-0.85 0.41-0.6 0.96-1.16 1.63-1.68 32.79-25.38 65.34-50.63 97.67-75.76 0.97-0.76 1.48-1.97 1.33-3.19l-5.8-48.93c-0.1-0.83-1.09-1.2-1.71-0.64-27.54 24.75-62.38 45.27-99.53 50.88-53.91 8.14-100.77-13.89-140.42-48.69-0.49-0.42-1.25-0.13-1.32 0.51-1.49 13.33-2.97 26.7-4.43 40.12-0.66 6.09-1.57 8.55 3.07 12.18 31.86 24.96 63.71 49.91 95.55 74.85 0.18 0.14 0.23 0.38 0.12 0.58-0.1 0.2-0.34 0.29-0.55 0.22l-89.65-30.67c-0.67-0.23-1.4 0.1-1.66 0.76-4.6 11.46-6.88 23.46-6.83 36.01 0.01 0.45-0.11 0.79-0.35 1.02-0.17 0.16-0.45 0.06-0.47-0.17-5.4-47.62-6.63-95.35-3.69-143.18 0.02-0.35-0.09-0.66-0.33-0.93-5.09-5.55-8.23-9.21-9.44-10.97-12.38-18.07-16.97-41.5-17.01-63.73 0-0.64 0.67-1.05 1.23-0.75 7.1 3.78 14.49 6.88 22.17 9.3 0.21 0.07 0.44-0.04 0.51-0.25 0.13-0.36 0.01-0.62-0.36-0.78-30.2-12.92-47.53-35.78-52-68.57-2.5-18.34-2.21-38.67-2.82-57.72-0.02-0.78-0.81-1.29-1.53-1.01-7.24 2.85-13.91 0.98-18.58-5.09-1.97-2.56-3.22-4.74-3.77-6.55-7.61-25.17-16.17-50.01-25.66-74.53-3.82-9.85-9.61-28.68-4.73-38.09 8.65-16.71 29.38 0.96 37.41 8.24 0.32 0.29 0.82 0.03 0.77-0.4-5.51-41.69-9.5-83.57-11.95-125.65-0.12-2.06-0.99-5.42-1.91-7.32-9.6-20.05-19.25-39.69-19.32-62.55-0.03-13.97 2.74-27.12 8.33-39.45zm238.01-77.3 0.24 0.54c0.13 0.29 0.42 0.46 0.74 0.43 14.96-1.59 29.8-0.78 44.51 2.42 34.07 7.41 51.1 32.55 55.06 65.54 0.05 0.47 0.15 0.84 0.29 1.12 0.28 0.54 1.09 0.35 1.1-0.25 1.29-59.36-50.09-83.7-101.69-70.32-0.29 0.07-0.37 0.25-0.25 0.52zm-225.69 108.9c-0.42 0.52-1.51 1.26-1.6 2.27-0.04 0.4 0.46 0.61 0.73 0.31 51.08-56.97 143.9-118.55 225.09-99.35 44.45 10.51 72.04 47.14 75.73 91.86 0.05 0.61 0.35 0.6 0.88-0.01 0.08-0.08 0.12-0.2 0.12-0.32 0.18-15.71-2.7-30.73-8.64-45.04-17.36-41.82-63.57-62.44-106.94-60.22-71.92 3.68-142.15 56-185.37 110.5zm77.01-33.06c-21.15 12.6-42.16 28.11-60.18 45.92-0.15 0.15-0.25 0.33-0.3 0.52-0.07 0.26-0.1 0.46-0.1 0.61-0.01 0.38 0.44 0.58 0.72 0.33 26.46-23.74 58.79-44.36 92.91-55.03 40.09-12.54 98-10.14 120.39 32.48 10.75 20.45 11.16 41.28 4.95 63.61-0.06 0.2 0.05 0.41 0.24 0.49 0.2 0.08 0.41 0 0.51-0.19 12.42-24.09 17.93-53.42 2.16-77.53-35.85-54.83-114.73-38.94-161.3-11.21zm56.7 23.87c35.16-5.2 75.68 0.64 93.59 35.79 0.21 0.43 0.49 0.47 0.82 0.13l0.18-0.18c0.19-0.19 0.24-0.42 0.14-0.67-12.96-32.64-53.15-44.61-85.06-41.78-31.35 2.79-59.1 14.67-83.24 35.64-0.12 0.1-0.06 0.3 0.1 0.32l0.34 0.04c0.31 0.05 0.6-0.02 0.87-0.2 21.38-14.4 46.72-25.31 72.26-29.09zm-99.86 223.67c15.35-16.05 34.06-25.7 56.14-28.97 0.6-0.09 0.84-0.84 0.39-1.25-0.27-0.25-0.7-0.39-1.27-0.42-8.21-0.38-14.28 1.09-21.89 5.17-3.11 1.66-6.26 3.14-9.45 4.45-0.68 0.28-1.37-0.38-1.12-1.08 4.1-11.51 12.76-21.28 23.98-25.56 8.17-3.13 16.94-3.24 26.06-2.77 23.12 1.21 43.44 8.73 60.97 22.55 7.19 5.67 12.45 11.35 21.73 13.52 15.17 3.55 30.86 3.98 47.05 1.31 8.65-1.43 16.07-3.18 22.67-8.61 11.76-9.69 25.25-17.44 40.46-23.26 28.45-10.89 64.97-11.43 77.01 23.43 0.51 1.46-1.25 2.65-2.42 1.63-8.19-7.16-17.78-10.76-28.75-10.8-0.42-0.01-0.76 0.32-0.78 0.74-0.03 0.61 0.34 0.96 1.09 1.05 19.37 2.36 37.74 13.6 51.69 26.88 0.31 0.29 0.82 0.12 0.89-0.3 1.61-9.96 2.5-20.4-0.41-30.44-3.09-10.65-10.68-21.82-17.42-31.06-1.44-1.99-2.41-5.31-1.92-7.35 6.47-26.72 9.76-53.82 9.88-81.29 0.02-5.27-0.24-12.25-1.76-17.02-5.31-16.62-24.5-21.89-39.85-22.18-0.7-0.01-1.1-0.79-0.7-1.36 3.97-5.69 7.68-11.51 11.13-17.46 0.15-0.26 0.19-0.63 0.13-0.88-0.1-0.43-0.67-0.53-0.91-0.16-12.23 18.86-32.99 32.48-53.03 41.74-27.22 12.57-56.26 21.05-85.76 27.14-0.82 0.17-1.58-0.46-1.59-1.29-0.62-52.34-44.94-72.04-90.88-63.66-0.62 0.11-0.62 1 0 1.11 0.63 0.11 1.35 0.16 2.16 0.15 38.9-0.86 74.84 20.13 78.55 62.16 0.13 1.55-0.22 2.76-1.05 3.65-0.43 0.46-1.19 0.26-1.35-0.34-4.93-18.51-16.05-31.32-33.36-38.41-36.05-14.78-90.56-6.24-117.26 23.61-6.21 6.94-9.92 14.84-11.12 23.69-0.62 4.56-0.27 11.19 1.05 19.89 2.22 14.68 5.3 29.08 9.24 43.21 0.25 0.92 0.08 1.9-0.46 2.68-14.69 20.88-29.22 39.61-18.37 66.05 0.15 0.35 0.35 0.38 0.61 0.11zm201.1 26.21c5.38 41.27 35.9 74.67 77.45 81.57 36.41 6.04 69.73-10.44 83.62-45.27 4.6-11.52 8.07-24.98 7.01-37.34-2.36-27.6-31.44-43.65-55.38-48.42-21-4.19-41.71-3.12-62.12 3.21-16.69 5.17-27.15 8.32-31.4 9.43-16.12 4.24-34.19 4.34-51.24 3.31-16.73-1.01-30.85-5.77-46.03-10.53-24.1-7.55-50.01-9.93-74.73-4.55-25.67 5.58-55.42 25.58-52.69 55.83 4 44.15 33.8 78.97 81.02 75.53 45.68-3.33 82.84-37.22 87.47-83.32 0.79-7.93 0.44-18.13 0.45-27.09 0-0.52 0.42-0.94 0.95-0.95l33.82-0.05c0.66-0.01 1.2 0.53 1.21 1.19 0.1 9.08-0.48 19.25 0.59 27.45zm169.01 67.09c-1.2 10.81 11.81 6.69 15.49 1.33 5.24-7.62 6.75-16 9.09-24.39 1.19-4.27 2.74-8.96 4.66-14.07 6.55-17.41 14.02-37.18 16.28-56.43 1.36-11.55-4.31-21.44-15.96-11.11-15.65 13.86-20.52 28.94-23.04 49.47-2.62 21.33-4.79 39.73-6.52 55.2zm-422.03-102.12c-2.45 11.35 2.09 25.96 6.17 36.86 7.22 19.27 13.66 38.8 19.33 58.58 2.51 8.74 9.03 16.19 19.06 14.2 0.64-0.13 1.1-0.7 1.09-1.35-0.29-17.04 0.02-34.87-2.31-51.85-2.58-18.82-10.92-36.04-22.01-51.66-2.87-4.05-6.17-7.21-9.88-9.48-5.08-3.11-10.15-1.31-11.45 4.7zm72.76 128.74c6.23 29.01 11.48 82.27 57.74 50.98 20.82-14.08 41.95-31.75 68.82-29.42 6.47 0.56 14.68 3.46 20.9 4.38 11.91 1.78 23.62 1.23 35.12-1.65 6.1-1.53 10.04-2.38 11.83-2.57 29.63-3.18 50.71 17.88 74.31 31.22 38.98 22.03 46.57-17.11 50.73-43.88 0.66-4.28 1.73-8.89 3.48-12.12 8.52-15.77 16.93-31.28 19.89-49.22 0.05-0.33-0.15-0.65-0.47-0.75-0.43-0.13-0.75 0.07-0.94 0.61-10.27 29.24-37.36 46.37-67.98 46.14-56.18-0.41-98.53-44.22-98.63-100.11 0-1.14-0.91-2.07-2.05-2.1-6.61-0.18-13.3-0.44-20.07-0.79-1.87-0.1-3.09 0.94-3.21 2.9-3.12 50.16-32.8 89.35-83.26 99.21-33.01 6.45-64.66-7.06-81.18-37.05-1.97-3.59-3.26-6.21-3.86-7.86-2.77-7.63-3.32-7.44-1.64 0.57 2.75 13.1 10.02 27.15 16.88 41.12 1.58 3.2 2.83 6.86 3.59 10.39zm160.41 42.9c0.8 13.06-9.37 19.12-19.64 23.8-0.42 0.19-0.43 0.78-0.02 0.98 1.01 0.49 2.13 0.87 3.36 1.13 12.88 2.75 25.72 2.61 38.52-0.43 0.49-0.12 0.52-0.8 0.04-0.96-14.19-4.66-21.26-14.63-21.21-29.9 0-0.37-0.07-0.66-0.2-0.85-0.33-0.47-1.07-0.23-1.06 0.34 0.02 1.89 0.09 3.85 0.21 5.89zm-53.24 49.86c-0.21-0.13-0.3-0.4-0.2-0.63 0.09-0.23 0.34-0.36 0.58-0.3 10.03 2.32 19.9 1.93 29.95 3.95 14.33 2.88 29.71 4.21 42.69 1.65 7.91-1.57 15.88-2.66 23.91-3.29 3.95-0.31 7.77-1.04 11.44-2.17 0.39-0.12 0.73 0.28 0.55 0.64-0.17 0.35-0.46 0.63-0.89 0.85-5.11 2.64-10.46 4.52-16.05 5.64-1.58 0.32-2.84 0.9-3.79 1.75-13.89 12.44 0.53 31.57 16.66 26.95 2.61-0.75 6.25-2.78 10.92-6.1 5.94-4.23 11.91-8.39 17.91-12.48 0.52-0.35 0.72-1.01 0.48-1.59-10.98-26.7-30.29-36.46-59.07-31.82-13.86 2.23-24.6 2.11-38.85-0.13-13.72-2.17-27.21-3.36-39.66 3.64-10.06 5.66-16.69 15.76-20.85 26.56-0.19 0.5-0.06 1.07 0.33 1.45 9.5 9.14 46.83 38.59 50.46 6.12 1.83-16.36-16.73-14.61-26.52-20.69z"/> <path d="m335.33 484.39c1.7 0.52 1.51 1.72 1.72 3.16 7.24 50.06-24.13 91.8-73.06 101.9-43.41 8.97-78.16-18.34-84.75-60.77-1.18-7.61-1.2-14.24-0.06-19.89 7.86-38.89 63.48-46.17 94.5-41.65 4.88 0.71 11.36 2.25 19.44 4.62 14.09 4.13 28.16 8.34 42.21 12.63z"/> <path d="m411.67 567.58c-23.72-21.16-30.52-49.08-28.58-80.34 0.05-0.79 0.19-1.43 0.41-1.91 0.21-0.46 0.7-0.79 1.47-0.98 14.17-3.64 28.29-7.48 42.34-11.51 33.39-9.59 65.25-10.94 94.71 9 16.13 10.92 23.21 25.49 19.53 45.24-5.65 30.34-23.57 53.56-53.28 61.83-27.89 7.77-55.76-2.73-76.6-21.33z"/> <path d="m322.19 618.78c-4.24-5.47 7.95-8.42 10.99-7.98 5.92 0.85 11.72 5.6 17.21 8.58 15.92 8.64 20.82-0.15 33.73-6.54 4.07-2.02 11.61-2.87 14.77 0.98 6.55 8.01-11.96 8.48-15.02 8.84-6.19 0.73-10.19 5.94-16.59 7.55-9.63 2.41-19.49-0.59-26.63-7.36-4.99-4.74-14.81 0.64-18.46-4.07z"/> <path d="m595.68 983.22c6.44 6.69 12.75 13.25 19.32 20.03 0.54 0.55 0.61 1.41 0.17 2.04-13.22 19.01-31.32 37.97-54.5 43.74-0.89 0.22-1.07 1.4-0.29 1.88 26.57 16.35 54.59 29.33 84.05 38.92 1.95 0.64 2.12 1.83 1.34 3.61-20.37 46.43-46.72 91.52-80.71 129.35-41.3 45.95-92.02 76.39-152.15 91.31-8.69 2.16-17.41 4.19-26.14 6.1-0.26 0.06-0.52-0.1-0.6-0.36-0.08-0.25 0.06-0.53 0.31-0.62 2.02-0.77 3.76-1.3 5.42-2.77 35.15-31.02 46.35-81.3 58.31-124.32 34.21-123.11 51.07-248.74 50.58-376.89 0-0.7 0.82-1.08 1.35-0.62l30.58 26.43c0.3 0.26 0.48 0.62 0.53 1.01 5.9 52.81 25.27 102.52 62.43 141.16z"/> <path d="m106.93 1003.4c21.1-19.6 40.56-41.57 54.56-66.89 16.07-29.06 25.12-60.38 27.17-93.96 0.05-0.9 0.53-1.47 1.16-2.01 9.89-8.46 19.76-16.86 29.61-25.2 0.62-0.53 1.58-0.08 1.58 0.74-0.7 148.33 21.6 298.05 69.48 438.38 8.53 24.98 20.7 48.25 43.31 63.44 0.34 0.23 0.12 0.76-0.28 0.68-67.73-13.24-128.3-44.73-175.77-95.13-35.46-37.64-62.38-83.23-81.59-131.01-0.23-0.57 0.07-1.2 0.65-1.38 30.7-9.61 59.71-22.9 87.03-39.85 0.2-0.12 0.26-0.4 0.12-0.59s-0.31-0.29-0.52-0.3c-0.29-0.02-0.46-0.04-0.5-0.05-23.99-6-42.44-25.03-56.21-45.02-0.4-0.58-0.32-1.37 0.2-1.85z"/> <path d="m0 983.43v-6.24l0.41-0.92c0.13-0.29 0.34-0.47 0.65-0.55 71.22-18.84 136.8-53.5 177.39-117.06 0.09-0.13 0.23-0.44 0.43-0.93 0.19-0.45 0.49-0.67 0.9-0.67 0.4 0 0.7 0.35 0.64 0.74-8.57 58.23-35.28 105.74-80.12 142.51-1.11 0.9-1.97 1.69-2.6 2.38-0.31 0.33-0.33 0.69-0.07 1.06 13.31 19.34 29.63 35.67 48.97 48.98 0.58 0.4 0.54 1.28-0.08 1.62-24.75 13.65-50.65 24.61-77.68 32.9-1.01 0.31-1.54 1.41-1.15 2.39 23.81 60.06 59.78 117.17 108.63 160.53 50.8 45.09 112.54 70.75 180.07 77.5 0.27 0.03 0.45 0.28 0.4 0.54-0.08 0.43-0.42 0.64-1.03 0.61-35.47-1.63-70.59-9.34-103.24-23.15-133.59-56.5-233.99-176.22-252.52-322.24z"/> <path d="m376.15 1329h-5.21l-2.94-0.62c-0.19-0.04-0.32-0.21-0.31-0.4 0.01-0.2 0.16-0.35 0.35-0.37 84.38-8.11 159.85-47.32 213.4-112.73 31.15-38.06 55.15-80.95 73.22-126.76 0.37-0.95 0.07-1.57-0.9-1.88-26.94-8.55-52.82-19.58-77.65-33.08-0.84-0.45-0.87-1.66-0.05-2.15 19.61-11.67 34.09-27.92 48.13-45.57 1.71-2.15 1.23-3.05-0.76-4.68-44.84-36.69-71.62-83.89-80.35-141.61-0.05-0.35 0.4-0.53 0.61-0.25 45.66 61.74 110.28 94.64 183.21 114.74 2 0.56 2.51 1.67 2.32 3.64-10.95 115.23-77.87 219.12-171.56 284.4-53.91 37.55-114.41 59.99-181.51 67.32z"/> <path d="m286.26 959.94c0.01 0.19 0.1 0.36 0.26 0.49 0.09 0.07 0.22 0.11 0.38 0.11 14.71-0.05 29.33-0.06 43.85-0.03 0.83 0.01 1.5 0.68 1.5 1.51v17.3c0 1.36-0.6 2.35-1.81 2.98l-81.24 42.43c-0.57 0.3-1.27-0.01-1.43-0.63-10.33-39.2-12.51-82.21-2.27-121.83 0.19-0.72 0.95-1.13 1.66-0.89l83.53 28.44c0.93 0.32 1.56 1.19 1.56 2.18v20.24c0 0.75-0.56 1.38-1.3 1.47l-44.26 5.7c-0.26 0.03-0.45 0.27-0.43 0.53z"/> <path d="m434.69 959.3-41.64-5.37c-1.6-0.21-2.8-1.57-2.8-3.19v-18.8c0-0.93 0.6-1.76 1.48-2.05l82.33-27.83c0.91-0.31 1.46 0.01 1.67 0.94 9.2 40.7 8.28 81.14-2.77 121.33-0.2 0.74-1.04 1.09-1.71 0.73l-79.87-43.2c-0.7-0.38-1.13-1.1-1.13-1.89v-16.97c0-1.21 0.98-2.19 2.19-2.21 13.71-0.14 27.57-0.06 41.56 0.25 0.79 0.02 1.21-0.34 1.25-1.07 0.02-0.34-0.22-0.63-0.56-0.67z"/> <path d="m375.72 924.76c4.55-0.04 8.27 3.63 8.3 8.18l0.29 41.26c0.04 5.56-6.72 10.13-15.08 10.18l-16 0.12c-8.37 0.05-15.18-4.41-15.22-9.98l-0.29-41.26c-0.03-4.55 3.63-8.26 8.18-8.3l29.82-0.2z"/> </g> <g fill="#151921"> <path d="m1079.3 0h4c16.34 1.99 31.83 10.24 45.88 18.8 38.17 23.26 69.05 54.62 94.94 90.81 0.31 0.43 0.22 1.04-0.2 1.36l-6.41 4.88c-0.71 0.55-1.67 0.65-2.48 0.27-39.61-18.4-81.24-29.1-124.89-32.1-0.39-0.03-0.48 0.13-0.29 0.46 0.1 0.18 0.26 0.29 0.48 0.33 42.41 7.82 83.49 21.06 121 42.58 0.39 0.23 0.61 0.57 0.64 1.02l0.63 9.62c0.03 0.52-0.35 0.96-0.86 1-23.91 1.92-47.28 6.76-70.11 14.52-14.92 5.07-30.97 11.7-45.39 14.87-15.32 3.36-53.02 8.88-59.67-12.17-3.43-10.88 3.77-28.62 7.01-39.3 8.48-27.99 13.25-57.14 14.31-87.46 0.48-13.65 5.67-28.11 21.41-29.49z"/> <path d="m1399.2 123.4c0-0.43-0.28-0.67-0.83-0.74-45.45-5.15-89.28-9.15-134.48 0.83-0.82 0.18-1.67-0.13-2.18-0.8l-5.9-7.84c-0.59-0.79-0.47-1.9 0.27-2.54 36.51-31.66 77.74-53.76 123.69-66.29 18.32-4.99 61.2-11.3 58.42 21.49-1.83 21.54-6.39 46.07-7.81 69.49-0.9 14.74 0.36 30.29 1.15 45.31 0.49 9.35 0.28 16.22-0.63 20.63-2.74 13.19-14.63 17.24-26.69 15.3-25.95-4.17-47.27-20.92-67.94-35.82-22.45-16.18-46.9-28.4-73.34-36.65-0.35-0.11-0.6-0.34-0.74-0.68-1.55-3.75 3.18-8.28 5.97-9.89 13.34-7.67 31.96-9.35 48.23-10.5 27.43-1.94 54.96-1.82 82.36-0.86 0.25 0.01 0.46-0.19 0.45-0.44z"/> <circle cx="1238.2" cy="134.18" r="22.53"/> <path d="m1358.4 240.18c0.11 0.14 0.3 0.17 0.45 0.07 0.15-0.09 0.2-0.28 0.12-0.44-21.54-42.04-61.65-70.8-107.13-81.82-0.54-0.13-0.67-0.84-0.21-1.16 1.95-1.35 6.85-5.42 9.19-4.67 24.58 7.85 47.53 19.05 68.63 33.85 20.33 14.26 39.15 28.37 62.3 37.8 1.09 0.44 1.51 1.76 0.88 2.76-34.64 54.89-77.68 101.94-129.11 141.15-59.85 45.62-131.79 60.43-205.73 50.8-1.72-0.22-2.7 0.38-2.93 1.79-1.61 9.79-3.23 19.56-4.86 29.31-0.1 0.59-0.6 1.03-1.2 1.04-11.34 0.23-22.75-0.24-34.24-1.39-3.68-0.37-7.11-1.75-10.05-4.42-39.02-35.51-52.28-84.74-43.93-136.09 9.63-59.17 50.11-99.75 101.3-126.42 12.2-6.35 24.53-3.15 36.87-7.43 26.35-9.14 44.69-15.29 55.04-18.44 18.23-5.56 36.75-9.79 55.38-10.43 4.09-0.15 7.35 0.83 6.75 5.63-0.06 0.55-0.51 0.99-1.07 1.04-64.63 5.42-123.22 37.91-165.9 86.19-0.22 0.25-0.02 0.64 0.31 0.61 0.11-0.01 0.22-0.01 0.33 0 0.2 0.03 0.39-0.03 0.54-0.16 39.99-33.42 89.1-59.64 140.69-67.19 66.13-9.69 126.5 16.58 167.58 68.02zm-344.39 14.92c-4.04 13.91-6.46 29.97-0.45 43.88 7.58 17.56 25.74 24.86 43.88 25.88 0.36 0.02 0.69-0.2 0.81-0.54 0.16-0.47-0.05-0.74-0.64-0.83-60.98-9.57-37.7-74-11.65-102.97 0.28-0.32 0.18-0.82-0.2-0.99-0.32-0.15-0.67-0.12-1.04 0.09-36.62 20-67.21 56.87-69.35 100.09-1.54 31.07 11.96 57.92 38.75 73.72 7.62 4.5 16.91 8.18 25.68 11.32 0.46 0.17 0.89-0.29 0.71-0.74-0.27-0.65-0.8-1.14-1.6-1.45-65.75-25.67-71.78-101.02-25.57-147.85 0.29-0.29 0.79-0.01 0.67 0.39zm29.96 43.75c40.95 14.92 80.86 9.3 119.85-8.8 24.33-11.3 47.31-24.52 70.85-36.87 34.04-17.87 71.29-27.27 106.95-7.14 0.73 0.41 1.97 1.5 2.89 1.7 0.74 0.16 0.84-0.02 0.29-0.54-41.51-39.18-91.6-18.51-133.43 5.13-46.09 26.04-90.78 51.54-145.52 48.11-6.58-0.41-14.63-2.25-22.05-2.92-0.49-0.04-0.81 0.5-0.52 0.9 0.11 0.16 0.34 0.3 0.69 0.43z"/> <path d="m1407.9 450.64c-0.47 0.02-0.86-0.34-0.89-0.81-0.39-7.84-2.4-15.2-7.58-21.32-34.02-40.2-55.82-90.38-36.68-142.76 6.01-16.45 19.85-36.91 30.16-51.41 0.81-1.13 1.78-1.08 2.9 0.16 19.52 21.52 30.29 52 35.99 78.95 9.45 44.65 11.9 89.58 7.35 134.81-0.06 0.61-0.56 1.08-1.16 1.1l-30.09 1.28z"/> <path d="m1368.5 455.18c-16-3.85-31.06-5.58-47.66 0.21-18.84 6.57-37.73 12.83-56.66 18.8-0.58 0.18-1.1-0.41-0.85-0.96 7.64-16.9 20.47-27.71 38.48-32.44 24.28-6.38 50.46-8.74 67.44 13.23 0.42 0.55-0.08 1.32-0.75 1.16z"/> <path d="m1118.6 451.47c-9.04-1.79-22.32 0.97-31.26 3.62-0.41 0.13-0.81-0.22-0.75-0.65 0.05-0.36 0.26-0.77 0.63-1.23 15.66-19.75 41.36-17.94 63.28-12.98 18.27 4.13 31.26 14.86 38.98 32.17 0.16 0.36 0.04 0.55-0.35 0.57-0.14 0.01-0.34 0.03-0.6 0.06-0.21 0.02-0.4 0-0.59-0.05-22.17-6.76-45.67-16.84-69.34-21.51z"/> <path d="m1064.4 578.67c5.53 32.26 13.25 64.46 27.97 94.13 0.12 0.24-0.11 0.5-0.36 0.43-0.17-0.05-0.36-0.13-0.55-0.24-0.16-0.09-0.3-0.23-0.41-0.43-5.07-9.11-10.15-18.22-15.23-27.33-0.58-1.04-1.57-1.36-2.97-0.95-37.73 11.04-75-7.73-95.12-39.85-24.77-39.53-10.54-87.65 23.05-116.39 0.19-0.17 0.5-0.05 0.53 0.21 2.24 17.15 7.32 33.39 15.23 48.71 2.37 4.59 4.35 8.73 5.93 12.43 5.96 13.96 17.02 45.29 38.4 26.01 0.55-0.5 0.65-1.33 0.23-1.94-24.19-34.89-41.1-73.04-50.73-114.44-0.12-0.52 0.28-1.02 0.81-1 54.57 1.15 108.92 5.82 162.19 19.92 17.83 4.72 32.99 8.9 45.48 12.54 5.71 1.67 13.05 1.06 19.46-0.72 28.92-8.05 57.71-16.91 87.42-21.6 39.11-6.18 78.66-9.52 118.64-10.01 0.57-0.01 0.98 0.54 0.81 1.09-9.24 29.37-20.71 57.94-34.42 85.7-3.26 6.6-7.94 14.08-14.04 22.43-37.54 51.39-112.08 49.52-143.63-7.61-5.25-9.51-10.04-19.24-14.35-29.2-6.69-15.41-18.75-12.99-24.66 0.95-9.94 23.42-19.16 42.66-40.18 57.77-36.38 26.16-76.86 16.1-108.74-11.05-0.33-0.28-0.83 0.01-0.76 0.44zm10.83-81.06 41.53-7.81c0.42-0.08 0.42-0.68 0-0.76-14.27-2.76-70.32-10.25-66.87 18.44 2.7 22.49 11.54 41.65 26.52 57.49 27.75 29.36 73.08 36.53 104.91 8.31 12.27-10.87 19.13-24.55 20.59-41.03 0.79-8.96-2.72-15.74-10.53-20.33-17.39-10.21-36.79-15.69-55.99-19.17-0.35-0.06-0.7 0.14-0.82 0.48s0.03 0.71 0.35 0.88c0.53 0.28 1.09 0.83 1.67 0.98 9.45 2.45 19.02 5.05 28.72 7.79 0.51 0.15 0.68 0.78 0.31 1.16-17.83 18.71-61.73 13.59-83.61 7.07-0.31-0.09-0.4-0.48-0.17-0.7l1.08-1.04c0.29-0.27 0.31-0.72 0.06-1.02l-8.13-9.66c-0.33-0.39-0.12-0.99 0.38-1.08zm175.57 29.64c-1.04 27.73 22.38 53.51 47.77 60.43 51.14 13.93 93.82-24.61 104.58-71.91 2.54-11.22 2.52-24.36-11.39-27.1-16.14-3.18-33.73-4.16-49.84-0.27-0.13 0.03-0.24 0.09-0.33 0.16-0.3 0.25-0.34 0.48-0.13 0.69 0.02 0.03 0.05 0.04 0.08 0.05l38.72 8.05c0.52 0.11 0.72 0.75 0.35 1.13l-7.57 7.9c-0.56 0.59-0.28 1.56 0.51 1.76l3.66 0.9c0.38 0.1 0.41 0.63 0.04 0.76-27.65 9.75-61 11.18-86.05-5.01-0.71-0.45-0.71-1.48-0.01-1.95 8.1-5.42 20.36-6.66 29.7-9.69 0.27-0.09 0.48-0.23 0.65-0.42 0.21-0.25 0.35-0.47 0.43-0.66 0.17-0.43-0.2-0.89-0.66-0.8-17.19 3.27-33.81 8.38-49.86 15.31-8.64 3.73-20.25 10.14-20.65 20.67zm-205.66 78.178c3.5089-0.7275 5.7289-4.3275 4.9641-8.0336-0.7652-3.7139-4.2352-6.1239-7.7463-5.4014-3.5089 0.7275-5.7289 4.3275-4.9641 8.0336 0.7652 3.7139 4.2352 6.1239 7.7463 5.4014zm8.5489 26.322c0-3.82-3.09-6.91-6.91-6.91s-6.91 3.09-6.91 6.91 3.09 6.91 6.91 6.91 6.91-3.09 6.91-6.91z"/> <path d="m1378.9 642.39c-0.36-0.14-0.55-0.52-0.44-0.89 6.43-21.21 11.57-42.73 15.42-64.56 0.22-1.22 1.66-1.76 2.62-0.99 2.54 2.01 2.29 3.86 6.17 4.46 6.93 1.06 12.48-0.47 16.67-4.6 1.8-1.77 3.91-5.43 6.34-10.98 4.13-9.45 8.44-18.83 12.91-28.12 8.27-17.2 12.95-31 13.27-49.41 0.01-0.54 0.64-0.82 1.04-0.46 56.35 50.48 43.34 134.86-31.72 157.29-14.65 4.38-28.21 3.45-42.28-1.74zm38.34-43.98c0-3.79-3.08-6.87-6.87-6.87s-6.87 3.08-6.87 6.87 3.08 6.87 6.87 6.87 6.87-3.08 6.87-6.87zm-2.42 33.57c0-3.85-3.12-6.97-6.97-6.97s-6.97 3.12-6.97 6.97 3.12 6.97 6.97 6.97 6.97-3.12 6.97-6.97z"/> <path d="m1201.8 614.95c-1.34-0.47-1.73-2.17-0.74-3.18 7.05-7.23 17.29-1.12 26.05 2.68 0.31 0.14 0.64 0.16 0.97 0.05 9.17-2.99 18.64-10.71 26.68-2.82 0.78 0.77 0.57 2.08-0.42 2.56-7.86 3.84-19.23 8.37-28.08 7.72-7.56-0.57-17.25-4.49-24.46-7.01z"/> <path d="m1269.1 688.85c-14.66 15.02-34.6 18.11-54.83 14.09-19.32-3.84-32.36-18.87-45.88-31.79-0.67-0.64-0.26-1.76 0.66-1.82l4.47-0.27c0.18-0.01 0.36-0.09 0.5-0.21 8.53-7.32 16.91-14.87 26.96-20.08 11.41-5.92 15.65-2.82 27.02 0.65 0.35 0.11 0.67 0.06 0.97-0.15 20.82-14.53 40.53 12.76 57.74 20.83 0.44 0.21 0.54 0.8 0.19 1.14-5.92 5.84-11.63 11.28-17.8 17.61z"/> <path d="m1576 975.06v2.03c-2.97 31.41-10.52 62.48-22.67 93.23-45.96 116.36-139.41 204.24-259.68 239.25-22.42 6.53-44.32 11.81-65.71 15.85-3.92 0.74-8.06 0.76-12.43 0.05-19.49-3.16-39.15-6.76-58.19-11.92-134.15-36.35-236.74-134.86-279.07-267.21-7.07-22.11-11.41-44.81-13.02-68.08-0.07-0.9-0.04-1.79 0.08-2.67 0.04-0.3 0.24-0.56 0.52-0.7 63.99-31.01 129.87-66.49 197.63-106.46 33.55-19.8 59.91-44.61 65.99-84.47 4.19-27.44-3.6-53.26-13.63-78.06-0.16-0.4 0.3-0.77 0.66-0.52 26.73 18.69 54.66 35.41 83.78 50.16 11.92 6.03 20.33 10.19 31.99 8.45 7.41-1.1 13.4-4.29 22.43-8.59 29.07-13.86 56.82-30.02 83.24-48.48 0.25-0.17 0.47-0.24 0.66-0.21 0.45 0.08 0.71 0.55 0.54 0.97-21.91 53.75-19.96 112.12 30.71 148.74 5.4 3.9 11.8 8.17 19.21 12.81 60.24 37.73 122.15 72.49 185.72 104.29 0.68 0.34 0.95 0.9 1.24 1.54zm-575.71 81.8c0.27 0.56 0.19 1.04-0.26 1.44-0.24 0.22-0.58 0.31-0.9 0.24-24.37-5.25-47.58-13.56-69.61-24.93-4.09-2.11-5.92 0.87-5.18 4.71 15.02 78.27 52.93 142.97 113.73 194.1 44.05 37.04 96.23 64.27 150.48 82.94 9.93 3.42 22.25 6.75 33.43 6.76 3.81 0.01 8.43-0.62 13.87-1.88 10.52-2.44 21-5.67 31.44-9.7 124.19-47.92 223.75-137.56 252.03-272.12 0.01-0.03 0.13-0.47 0.36-1.34 0.78-2.9-1.73-6.23-4.75-4.67-23.52 12.15-47.85 20.75-72.98 25.82-0.46 0.09-0.86 0.09-1.19-0.01-0.34-0.11-0.44-0.55-0.17-0.79 40.13-35.9 59.34-90.47 23.11-137.75-0.66-0.85-2.42-2.41-3.3-2.89-25.41-14.01-50.9-27.85-76.49-41.52-24.65-13.17-44.84-30.84-56.09-56.43-5.02-11.41-8.06-26.45-11.2-39.61-3.38-14.17-2.96-25.56-1.74-39.91 0.05-0.65-0.66-1.09-1.21-0.74-17.57 10.96-35.67 20.66-54.32 29.1-18.44 8.35-34.34 12.17-53.75 5.16-3.02-1.09-9.06-3.92-18.11-8.49-15.52-7.83-30.59-16.42-45.21-25.79-0.63-0.41-1.45 0.1-1.37 0.85 2.76 23.6-1.76 48.1-9.84 71.61-11.27 32.83-40.74 52.85-70.28 67.99-26.19 13.42-52.36 26.87-78.51 40.36-2.08 1.07-5.06 3.26-6.05 4.89-28.44 46.52-17.19 96.84 23.22 131.64 0.43 0.36 0.71 0.68 0.84 0.96z"/> <path d="m1262.8 976.48c-0.49 0.11-0.83 0.57-0.78 1.07 0.04 0.5 0.45 0.89 0.95 0.92 18.37 0.97 36.37 4.07 54 9.3 1.15 0.35 1.14 0.65-0.03 0.91-0.64 0.15-1.63 0.18-2.96 0.11-17.03-0.91-34.06-1.84-51.09-2.77-0.38-0.02-0.59 0.43-0.32 0.7l35.07 35.07c0.19 0.19 0.21 0.5 0.03 0.71-0.17 0.21-0.47 0.25-0.7 0.1-15.05-10.01-29.15-21.22-42.28-33.63-0.58-0.55-1.44-0.67-2.14-0.3-10.58 5.58-17.93 8.03-28.4 0.17-0.29-0.22-0.6-0.26-0.93-0.11-10.24 4.35-19.27 8.81-29.23 0.56-0.24-0.2-0.54-0.31-0.85-0.3-1.31 0.02-2.26 0.29-2.86 0.81-13.9 12.11-28.37 23.48-43.41 34.09-0.13 0.09-0.31 0.07-0.41-0.05-0.1-0.13-0.09-0.31 0.02-0.42l36.02-36.38c0.43-0.44 0.11-1.18-0.51-1.16l-46.7 1.87c-0.86 0.03-1.13-1.14-0.35-1.49 0.33-0.15 0.77-0.28 1.32-0.41 15.07-3.55 30.27-6.46 45.6-8.72 0.27-0.04 0.51-0.12 0.72-0.23 0.16-0.09 0.29-0.17 0.39-0.24 0.68-0.49 0.41-1.55-0.42-1.67-19.3-2.71-38.33-6.6-57.09-11.67-1.84-0.49-3.55-1.06-5.14-1.71-0.21-0.09-0.33-0.31-0.27-0.54 0.05-0.22 0.26-0.36 0.49-0.34l62.07 6.67c0.94 0.1 1.86-0.31 2.41-1.08 2.78-3.85 2.32-7.26-1.37-10.24-19.38-15.62-43.77-26.81-68.92-28.06-12.95-0.64-27.41 3.36-33.8 15.31-14.62 27.36 23.16 73.04 41.37 90.62 0.07 0.07 0.13 0.15 0.16 0.24 0.29 0.8 0.14 1.16-0.45 1.09-0.15-0.02-0.3-0.09-0.45-0.22-21.45-17.46-45.3-36.73-53.78-64.32-7.4-24.08 1.85-47.86 26.76-55.45 32.92-10.04 74.26 14.62 96.99 36.38 0.65 0.62 1.66 0.66 2.35 0.08 8.56-7.13 16.85-4.35 26.59-1.22 5.41 1.73 8.86-1.91 13-3.05 7.67-2.12 12.81 0.1 19.19 3.96 0.64 0.38 1.44 0.33 2.02-0.14 3.93-3.17 7.93-6.44 12.02-9.79 26.98-22.13 80.72-46.79 107.02-9 13.02 18.69 2.99 45.97-8.81 62.63-1.14 1.62-2.77 2.6-4.22 4.07-11.58 11.63-23.63 22.69-36.15 33.16-0.3 0.25-0.76 0.04-0.76-0.35 0-0.18 0.11-0.39 0.34-0.62 13.18-13.25 24.24-27.28 33.19-42.07 19.44-32.16 9.42-68.63-35.34-60.63-23.57 4.21-44.44 13.9-62.6 29.06-0.59 0.5-0.86 1.29-0.68 2.04l1.56 6.74c0.1 0.44 0.52 0.74 0.97 0.69 21.56-2.25 43.14-4.52 64.75-6.79 0.59-0.07 1.04-0.04 1.37 0.07 0.76 0.26 0.7 1.36-0.08 1.53l-64.46 14.44zm-64.88 9.08c9.03 7.21 16.63 3.6 25.42-0.99 0.92-0.48 2.03-0.34 2.79 0.36 20.07 18.47 38.55-16.16 23.86-30.23-8.76-8.39-16.61-4.74-25.51 0.55-1.16 0.69-3.48 0.2-4.71-0.76-5.96-4.66-11.22-7.68-18.98-3.66-12.72 6.58-14.47 25.48-2.87 34.73z"/> <path d="m1270.2 1027c-3.9-3.26-6.21-4.94-7.78-8.82-0.4-1 0.8-1.87 1.63-1.18 15.16 12.72 35.88 24.93 55.74 27.01 10.42 1.09 18.02-7 24.25-12.98 0.2-0.2 0.48-0.3 0.76-0.29 1.21 0.03 1.48 0.49 0.81 1.39-4.21 5.67-8.49 11.3-12.84 16.88-1.32 1.69-2.01 2.31-4.32 2.1-22.03-2.02-41.44-10.06-58.25-24.11z"/> <path d="m1221.5 1102.1c-27.21-12.7-39.1-52.42-40.61-79.58-0.05-0.97-1.22-1.42-1.91-0.75-18.19 17.65-40 27.53-65.44 29.66-0.8 0.06-1.57-0.29-2.04-0.94l-16.51-22.98c-0.15-0.21-0.11-0.49 0.08-0.65 0.19-0.17 0.48-0.16 0.66 0.02 10.25 10.09 17.11 20.4 34.07 15.93 18.51-4.88 35.04-12.93 49.61-24.16 0.25-0.19 0.61-0.11 0.76 0.16 2.82 5.1 3.95 14.79 5.36 20.7 5.09 21.35 15.8 38.62 32.13 51.8 3.78 3.06 7.95 1.6 11.23-1.71 17.9-18.04 28.61-39.89 32.14-65.54 0.06-0.43 0.65-0.5 0.81-0.09 0.47 1.24-0.1 2.64-0.2 3.59-2.83 26.59-14.08 58.94-37.57 74.35-0.76 0.5-1.74 0.58-2.57 0.19z"/> <path d="m1073.4 1198.7c22.39 42.07 60.1 81.73 101.89 105.1 0.04 0.03 0.1 0.05 0.17 0.07 0.15 0.04 0.23 0.14 0.26 0.31 0.04 0.25-0.06 0.33-0.3 0.24-56.79-22.19-112.6-54.1-155.88-97.64-45.13-45.4-74.31-99.99-87.55-163.78-0.09-0.46 0.38-0.82 0.8-0.62 33.71 16.44 69.36 25.27 106.94 26.48 1.1 0.03 1.97 0.94 1.97 2.04 0.02 44.36 10.99 88.86 31.7 127.8z"/> <path d="m1399.6 1069.6c0.07-0.62 0.6-1.09 1.22-1.1 38.39-0.72 74.81-9.45 109.27-26.18 0.33-0.16 0.62-0.17 0.89-0.03 0.25 0.13 0.34 0.34 0.27 0.61-29.31 126.81-122.37 212.36-239.87 259.56-0.08 0.03-0.13 0-0.14-0.09s0.01-0.18 0.04-0.25c0.02-0.05 0.06-0.1 0.11-0.13 77.24-46.94 121.88-127.35 126.83-216.97 0.29-5.22 0.75-10.36 1.38-15.42z"/> </g> </svg>